<svg width="212" height="57" viewBox="0 0 212 57" fill="none" xmlns="http://www.w3.org/2000/svg">
<path fill-rule="evenodd" clip-rule="evenodd" d="M31.9319 3.51247C27.6481 1.84464 23.027 5.00446 23.027 9.60145V14.3372L29.0554 16.6843C33.4234 18.3849 36.3 22.5918 36.3 27.2791V40.415L41.2391 42.3379C45.5229 44.0058 50.144 40.8459 50.144 36.249V17.305C50.144 13.2642 47.6641 9.63759 43.8987 8.17156L31.9319 3.51247Z" fill="url(#paint0_linear_2_142)"/>
<path d="M6.99664 19.7696C6.99664 15.1726 11.6177 12.0128 15.9015 13.6806L27.8683 18.3397C31.6337 19.8057 34.1136 23.4324 34.1136 27.4732V46.4171C34.1136 51.0141 29.4925 54.1739 25.2087 52.5061L6.99664 45.4155V19.7696Z" fill="url(#paint1_linear_2_142)"/>
<path d="M68.2449 14.1658H77.4578C79.6151 14.1658 81.5567 14.4957 83.2825 15.1556C85.0084 15.8155 86.4804 16.7545 87.6986 17.9727C88.9169 19.1656 89.8432 20.5996 90.4777 22.2746C91.1376 23.9497 91.4675 25.7898 91.4675 27.7948C91.4675 29.8252 91.1376 31.6779 90.4777 33.353C89.8432 35.028 88.9169 36.462 87.6986 37.6549C86.4804 38.8477 85.0084 39.7741 83.2825 40.434C81.5567 41.0938 79.6151 41.4238 77.4578 41.4238H68.2449V14.1658ZM77.2294 36.5508C78.7268 36.5508 80.0466 36.3478 81.1887 35.9417C82.3308 35.5103 83.2825 34.9138 84.0439 34.1524C84.8053 33.391 85.3764 32.4774 85.7571 31.4114C86.1378 30.3201 86.3281 29.1145 86.3281 27.7948C86.3281 26.475 86.1378 25.2822 85.7571 24.2162C85.3764 23.1249 84.8053 22.1985 84.0439 21.4371C83.2825 20.6757 82.3308 20.092 81.1887 19.6859C80.0466 19.2544 78.7268 19.0387 77.2294 19.0387H73.3844V36.5508H77.2294ZM111.344 36.9315C110.481 38.4543 109.313 39.6852 107.841 40.6243C106.395 41.5634 104.618 42.0329 102.512 42.0329C101.09 42.0329 99.7706 41.7918 98.5524 41.3096C97.3595 40.802 96.319 40.104 95.4307 39.2157C94.5424 38.3274 93.8444 37.2868 93.3368 36.094C92.8546 34.8758 92.6135 33.5433 92.6135 32.0967C92.6135 30.7515 92.8546 29.4825 93.3368 28.2897C93.819 27.0714 94.4916 26.0182 95.3545 25.1299C96.2174 24.2162 97.2326 23.4929 98.4001 22.9599C99.593 22.4269 100.9 22.1604 102.321 22.1604C103.819 22.1604 105.151 22.4142 106.319 22.9218C107.486 23.404 108.463 24.0893 109.25 24.9776C110.037 25.8405 110.633 26.8684 111.039 28.0613C111.445 29.2541 111.648 30.5485 111.648 31.9444C111.648 32.122 111.648 32.2743 111.648 32.4012C111.623 32.5535 111.61 32.6931 111.61 32.82C111.585 32.9469 111.572 33.0865 111.572 33.2388H97.5245C97.626 34.0001 97.8291 34.66 98.1336 35.2184C98.4636 35.7514 98.857 36.2082 99.3138 36.5889C99.796 36.9442 100.316 37.2107 100.875 37.3884C101.433 37.5406 102.004 37.6168 102.588 37.6168C103.73 37.6168 104.669 37.363 105.405 36.8554C106.166 36.3224 106.763 35.6625 107.194 34.8758L111.344 36.9315ZM106.814 29.6983C106.788 29.3683 106.674 29.0003 106.471 28.5942C106.293 28.1882 106.014 27.8075 105.633 27.4521C105.278 27.0968 104.821 26.8049 104.263 26.5765C103.73 26.3481 103.083 26.2339 102.321 26.2339C101.255 26.2339 100.316 26.5385 99.5041 27.1476C98.692 27.7567 98.1209 28.6069 97.791 29.6983H106.814ZM121.644 42.0329C120.425 42.0329 119.334 41.8806 118.37 41.576C117.43 41.2715 116.606 40.8781 115.895 40.3959C115.21 39.8883 114.626 39.3172 114.144 38.6827C113.662 38.0229 113.294 37.363 113.04 36.7031L117.494 34.7996C117.925 35.7641 118.496 36.4874 119.207 36.9696C119.943 37.4264 120.755 37.6549 121.644 37.6549C122.557 37.6549 123.281 37.4899 123.814 37.1599C124.346 36.83 124.613 36.4366 124.613 35.9798C124.613 35.4722 124.385 35.0661 123.928 34.7615C123.496 34.4316 122.735 34.1397 121.644 33.8859L119.017 33.3149C118.433 33.188 117.824 32.985 117.189 32.7058C116.58 32.4266 116.022 32.0713 115.514 31.6398C115.007 31.2084 114.588 30.6881 114.258 30.079C113.928 29.4698 113.763 28.7592 113.763 27.947C113.763 27.0334 113.953 26.2212 114.334 25.5106C114.74 24.7999 115.286 24.2035 115.971 23.7213C116.656 23.2137 117.456 22.833 118.37 22.5792C119.309 22.3 120.311 22.1604 121.377 22.1604C123.154 22.1604 124.74 22.5157 126.136 23.2264C127.532 23.9116 128.56 25.0157 129.219 26.5385L124.918 28.2897C124.562 27.5537 124.042 27.0207 123.357 26.6907C122.671 26.3608 121.986 26.1958 121.301 26.1958C120.59 26.1958 119.968 26.3481 119.435 26.6527C118.903 26.9318 118.636 27.2999 118.636 27.7567C118.636 28.1882 118.852 28.5308 119.283 28.7846C119.74 29.0384 120.349 29.2668 121.111 29.4698L123.966 30.1551C125.869 30.6119 127.278 31.3479 128.192 32.3631C129.131 33.353 129.6 34.5331 129.6 35.9036C129.6 36.7158 129.41 37.4899 129.029 38.2259C128.648 38.9619 128.103 39.6218 127.392 40.2055C126.707 40.7639 125.869 41.208 124.879 41.538C123.915 41.8679 122.836 42.0329 121.644 42.0329ZM131.899 14.1658H136.887V29.013H137.115L143.359 22.7695H149.526V23.0741L142.597 29.8125L150.097 41.1192V41.4238H144.196L139.095 33.2388L136.887 35.4087V41.4238H131.899V14.1658ZM164.663 39.1776H164.359C163.902 39.9644 163.191 40.637 162.227 41.1953C161.262 41.7537 160.07 42.0329 158.648 42.0329C157.455 42.0329 156.313 41.7918 155.222 41.3096C154.156 40.802 153.204 40.1167 152.367 39.2538C151.555 38.3655 150.907 37.3122 150.425 36.094C149.943 34.8758 149.702 33.5433 149.702 32.0967C149.702 30.65 149.943 29.3176 150.425 28.0993C150.907 26.8811 151.555 25.8405 152.367 24.9776C153.204 24.0893 154.156 23.404 155.222 22.9218C156.313 22.4142 157.455 22.1604 158.648 22.1604C160.07 22.1604 161.262 22.4396 162.227 22.998C163.191 23.5563 163.902 24.2289 164.359 25.0157H164.663L164.359 22.3508V14.1658H169.346V41.4238H164.663V39.1776ZM159.676 37.4264C160.336 37.4264 160.958 37.3122 161.542 37.0838C162.151 36.83 162.684 36.4747 163.141 36.0178C163.597 35.561 163.965 35.0027 164.245 34.3428C164.524 33.6829 164.663 32.9342 164.663 32.0967C164.663 31.2591 164.524 30.5104 164.245 29.8505C163.965 29.1907 163.597 28.6323 163.141 28.1755C162.684 27.7186 162.151 27.376 161.542 27.1476C160.958 26.8938 160.336 26.7669 159.676 26.7669C159.016 26.7669 158.382 26.8938 157.773 27.1476C157.189 27.4014 156.669 27.7567 156.212 28.2135C155.755 28.6704 155.387 29.2287 155.108 29.8886C154.829 30.5485 154.689 31.2845 154.689 32.0967C154.689 32.9088 154.829 33.6448 155.108 34.3047C155.387 34.9646 155.755 35.5229 156.212 35.9798C156.669 36.4366 157.189 36.7919 157.773 37.0457C158.382 37.2995 159.016 37.4264 159.676 37.4264ZM184.145 39.4441H183.84C183.256 40.1548 182.546 40.7639 181.708 41.2715C180.896 41.7791 179.843 42.0329 178.548 42.0329C177.584 42.0329 176.67 41.8679 175.807 41.538C174.97 41.2334 174.234 40.802 173.599 40.2436C172.965 39.6852 172.47 39.0127 172.115 38.2259C171.759 37.4391 171.582 36.5762 171.582 35.6372C171.582 34.6727 171.772 33.8098 172.153 33.0484C172.533 32.2616 173.066 31.5891 173.752 31.0307C174.437 30.4723 175.236 30.0536 176.15 29.7744C177.089 29.4698 178.104 29.3176 179.196 29.3176C180.414 29.3176 181.416 29.4191 182.203 29.6221C182.99 29.7998 183.637 29.9901 184.145 30.1932V29.6221C184.145 28.6323 183.751 27.8201 182.965 27.1856C182.178 26.5258 181.201 26.1958 180.033 26.1958C178.307 26.1958 176.848 26.9192 175.655 28.3658L172.038 25.8913C174.018 23.404 176.721 22.1604 180.147 22.1604C183.041 22.1604 185.249 22.8457 186.772 24.2162C188.294 25.5613 189.056 27.5663 189.056 30.2312V41.4238H184.145V39.4441ZM184.145 33.8479C183.561 33.5687 182.952 33.353 182.317 33.2007C181.708 33.023 181.036 32.9342 180.3 32.9342C179.107 32.9342 178.18 33.2007 177.521 33.7337C176.886 34.2413 176.569 34.8758 176.569 35.6372C176.569 36.3985 176.873 37.0077 177.482 37.4645C178.117 37.9213 178.84 38.1498 179.652 38.1498C180.312 38.1498 180.921 38.0356 181.48 37.8071C182.038 37.5533 182.508 37.2361 182.888 36.8554C183.294 36.4493 183.599 35.9925 183.802 35.4849C184.03 34.9519 184.145 34.4062 184.145 33.8479ZM197.751 40.5101L189.908 22.7695H195.581L200.301 34.0763H200.568L205.098 22.7695H210.656L198.969 49.6469H193.601L197.751 40.5101Z" fill="#171D41"/>
<defs>
<linearGradient id="paint0_linear_2_142" x1="45.2371" y1="-2.99281" x2="17.7842" y2="40.2492" gradientUnits="userSpaceOnUse">
<stop stop-color="#57E4F8"/>
<stop offset="1" stop-color="#0F75BE"/>
</linearGradient>
<linearGradient id="paint1_linear_2_142" x1="29.5941" y1="4.54817" x2="-18.7774" y2="47.6846" gradientUnits="userSpaceOnUse">
<stop stop-color="#7A85F9"/>
<stop offset="1" stop-color="#1A27A9"/>
</linearGradient>
</defs>
</svg>
