<svg width="57" height="57" viewBox="0 0 57 57" fill="none" xmlns="http://www.w3.org/2000/svg">
<path fill-rule="evenodd" clip-rule="evenodd" d="M31.9319 3.51245C27.6481 1.84462 23.027 5.00444 23.027 9.60143V14.3372L29.0554 16.6842C33.4234 18.3848 36.3 22.5918 36.3 27.2791V40.4149L41.2391 42.3379C45.5229 44.0058 50.144 40.8459 50.144 36.2489V17.305C50.144 13.2642 47.6641 9.63758 43.8987 8.17154L31.9319 3.51245Z" fill="url(#paint0_linear_30_2)"/>
<path d="M6.99664 27.3176C6.99664 19.0896 15.2678 13.4339 22.9352 16.4191V16.4191C29.675 19.0431 34.1136 25.5344 34.1136 32.7669V35.2824C34.1136 45.2358 24.1079 52.0775 14.8327 48.4663L6.99664 45.4155V27.3176Z" fill="url(#paint1_linear_30_2)"/>
<defs>
<linearGradient id="paint0_linear_30_2" x1="45.2371" y1="-2.99281" x2="17.7842" y2="40.2492" gradientUnits="userSpaceOnUse">
<stop stop-color="#57E4F8"/>
<stop offset="1" stop-color="#0F75BE"/>
</linearGradient>
<linearGradient id="paint1_linear_30_2" x1="29.5941" y1="4.54817" x2="-18.7774" y2="47.6846" gradientUnits="userSpaceOnUse">
<stop stop-color="#7A85F9"/>
<stop offset="1" stop-color="#1A27A9"/>
</linearGradient>
</defs>
</svg>
